<svg width="128" height="128" xmlns="http://www.w3.org/2000/svg">

 <g>
  <title>Layer 1</title>
  <path fill="#e5e51d" id="svg_1" d="m0,46.028l24.62,0l0,12.127l-12.46,0l-12.16,-12.127zm0,12.127l12.16,0l12.46,12.408l-12.46,0l0,12.41l-12.16,-12.411l0,-12.407zm40.282,15.585l0,-18.323l11.33,0l0,3.661l-7.077,0l0,4.805l7.078,0l0,3.66l-7.078,0l0,6.197l-4.253,0zm13.873,0l0,-12.69l4.236,0l0,2.834c0,-0.845 0.565,-1.708 1.13,-2.271c0.847,-0.563 1.43,-0.845 2.276,-0.845c0.565,0 0.847,0.282 1.13,0.282l0,3.678l-1.13,0c-1.13,0 -1.994,0.282 -2.559,1.127c-0.565,0.563 -0.847,1.689 -0.847,3.097l0,4.788l-4.236,0zm15.566,0.564c-1.993,0 -3.406,-0.846 -4.535,-1.972c-0.847,-1.127 -1.413,-2.816 -1.413,-4.788c0,-1.408 0.283,-2.534 0.566,-3.379a6.708,6.708 0 0 1 2.258,-2.552c0.848,-0.563 1.977,-0.845 3.124,-0.845c0.848,0 1.695,0.282 2.542,0.563c0.564,0.282 1.13,0.845 1.412,1.708l0,-1.99l4.236,0l0,12.69l-4.236,0l0,-1.689c-0.282,0.564 -0.848,1.127 -1.412,1.69c-0.847,0.282 -1.694,0.564 -2.542,0.564zm1.13,-3.38c1.13,0 1.694,-0.282 2.26,-1.127c0.564,-0.563 0.846,-1.408 0.846,-2.253c0,-1.126 -0.282,-1.69 -0.847,-2.534c-0.565,-0.563 -1.13,-0.845 -2.26,-0.845c-0.846,0 -1.711,0.282 -2.276,0.845c-0.564,0.845 -0.847,1.408 -0.847,2.534c0,0.845 0.283,1.69 0.847,2.253c0.565,0.845 1.43,1.126 2.277,1.126l0,0.001zm10.183,2.816l0,-12.69l3.953,0l0,1.989c0.283,-0.863 0.847,-1.145 1.413,-1.707c0.864,-0.282 1.43,-0.564 2.276,-0.564c1.977,0 3.39,0.845 3.954,2.27c0.564,-0.58 1.13,-1.143 1.694,-1.706c0.847,-0.282 1.712,-0.564 2.56,-0.564c3.105,0 4.517,1.69 4.517,5.087l0,7.885l-3.953,0l0,-7.04c0,-0.845 -0.282,-1.409 -0.565,-1.972c-0.283,-0.28 -0.847,-0.563 -1.429,-0.563c-0.847,0 -1.413,0.282 -1.695,0.845c-0.282,0.281 -0.565,1.127 -0.565,2.253l0,6.477l-3.953,0l0,-7.04c0,-0.845 -0.282,-1.409 -0.565,-1.972c-0.282,-0.28 -0.847,-0.563 -1.412,-0.563c-0.582,0 -1.148,0.282 -1.711,0.845c-0.283,0.281 -0.566,1.127 -0.566,2.253l0,6.477l-3.953,0zm35.935,-7.04l0,1.97l-9.336,0c0,0.846 0.282,1.41 0.847,1.972c0.282,0.281 1.129,0.563 1.976,0.563c1.412,0 1.977,-0.282 2.541,-1.126l3.972,0c-0.283,1.126 -0.848,2.253 -2.259,3.098c-1.13,0.563 -2.559,1.126 -4.254,1.126c-2.259,0 -3.953,-0.563 -5.083,-1.971a6.725,6.725 0 0 1 -1.994,-4.788c0,-2.252 0.847,-3.66 1.994,-5.086c1.13,-1.127 2.824,-1.69 5.083,-1.69c1.977,0 3.407,0.563 4.819,1.69c1.129,1.144 1.694,2.552 1.694,4.242zm-9.336,-0.564l5.364,0c0,-0.844 -0.281,-1.408 -0.564,-1.97c-0.565,-0.564 -1.129,-0.564 -1.977,-0.564c-0.847,0 -1.694,0.282 -2.259,0.563c-0.282,0.563 -0.564,1.127 -0.564,1.971zm11.596,7.604l0,-12.69l3.97,0l0,2.834a6.192,6.192 0 0 1 1.412,-2.271c0.565,-0.563 1.413,-0.845 2.259,-0.845c0.283,0 0.847,0.282 1.13,0.282l0,3.678l-1.412,0c-0.847,0 -1.695,0.282 -2.259,1.127c-0.848,0.563 -1.13,1.689 -1.13,3.097l0,4.788l-3.97,0z"/>
 </g>
</svg>